<svg width="522" height="92" viewBox="0 0 522 92" fill="none" xmlns="http://www.w3.org/2000/svg">
<path d="M125.5 24L99.25 50.25L125.5 76.5M132 76.5L146.5 24M153.5 24L179.75 50.25L153.5 76.5" stroke="white" stroke-width="3"/>
<path d="M216.364 42.4062C216.105 41.5076 215.742 40.7135 215.274 40.0241C214.806 39.3224 214.234 38.7315 213.557 38.2514C212.892 37.759 212.129 37.3835 211.267 37.125C210.418 36.8665 209.476 36.7372 208.442 36.7372C206.509 36.7372 204.81 37.2173 203.345 38.1776C201.893 39.1378 200.76 40.535 199.947 42.3693C199.135 44.1913 198.729 46.4195 198.729 49.054C198.729 51.6884 199.129 53.929 199.929 55.7756C200.729 57.6222 201.862 59.0317 203.327 60.0043C204.792 60.9645 206.521 61.4446 208.516 61.4446C210.325 61.4446 211.87 61.1245 213.151 60.4844C214.443 59.8319 215.428 58.9148 216.105 57.733C216.795 56.5511 217.139 55.1539 217.139 53.5412L218.764 53.7812H209.014V47.7614H224.839V52.5256C224.839 55.8494 224.138 58.7055 222.734 61.0938C221.331 63.4697 219.398 65.304 216.936 66.5966C214.474 67.8769 211.655 68.517 208.479 68.517C204.933 68.517 201.819 67.7353 199.135 66.1719C196.451 64.5961 194.358 62.3617 192.857 59.4688C191.367 56.5634 190.622 53.1165 190.622 49.1278C190.622 46.0625 191.065 43.3295 191.952 40.929C192.85 38.5161 194.106 36.4725 195.719 34.7983C197.331 33.1241 199.209 31.8499 201.351 30.9759C203.493 30.1018 205.813 29.6648 208.312 29.6648C210.455 29.6648 212.449 29.9787 214.295 30.6065C216.142 31.2221 217.779 32.0961 219.207 33.2287C220.648 34.3613 221.823 35.7093 222.734 37.2727C223.645 38.8239 224.23 40.535 224.489 42.4062H216.364ZM238.841 30.1818V68H230.846V30.1818H238.841ZM243.979 36.7741V30.1818H275.039V36.7741H263.461V68H255.558V36.7741H243.979ZM280.154 68V30.1818H288.15V45.7855H304.381V30.1818H312.359V68H304.381V52.3778H288.15V68H280.154ZM326.947 30.1818V68H318.951V30.1818H326.947ZM333.525 68V30.1818H348.446C351.302 30.1818 353.739 30.6927 355.758 31.7145C357.789 32.724 359.334 34.1581 360.393 36.017C361.464 37.8636 362 40.0365 362 42.5355C362 45.0469 361.458 47.2074 360.375 49.017C359.291 50.8144 357.722 52.1932 355.666 53.1534C353.622 54.1136 351.148 54.5938 348.243 54.5938H338.252V48.1676H346.95C348.476 48.1676 349.744 47.9583 350.754 47.5398C351.763 47.1212 352.514 46.4934 353.007 45.6562C353.511 44.8191 353.764 43.7789 353.764 42.5355C353.764 41.2798 353.511 40.2211 353.007 39.3594C352.514 38.4976 351.757 37.8452 350.735 37.402C349.726 36.9465 348.452 36.7188 346.913 36.7188H341.521V68H333.525ZM353.949 50.7898L363.348 68H354.521L345.325 50.7898H353.949ZM367.65 68V30.1818H393.133V36.7741H375.646V45.7855H391.822V52.3778H375.646V61.4077H393.207V68H367.65ZM412.896 68H399.49V30.1818H413.007C416.811 30.1818 420.086 30.9389 422.831 32.4531C425.576 33.955 427.688 36.1155 429.165 38.9347C430.654 41.7538 431.399 45.1269 431.399 49.054C431.399 52.9934 430.654 56.3788 429.165 59.2102C427.688 62.0417 425.564 64.2145 422.794 65.7287C420.036 67.2429 416.737 68 412.896 68ZM407.486 61.1491H412.564C414.928 61.1491 416.916 60.7306 418.528 59.8935C420.153 59.044 421.372 57.733 422.185 55.9602C423.009 54.1752 423.422 51.8731 423.422 49.054C423.422 46.2595 423.009 43.9759 422.185 42.2031C421.372 40.4304 420.16 39.1255 418.547 38.2884C416.934 37.4512 414.946 37.0327 412.582 37.0327H407.486V61.1491Z" fill="white"/>
</svg>
