<svg width="144" height="23" viewBox="0 0 144 23" fill="none" xmlns="http://www.w3.org/2000/svg">
<path d="M37.8983 0H36.2541C34.6397 0.00112779 33.0917 0.640793 31.9506 1.77838C30.8094 2.91597 30.1683 4.4584 30.1683 6.06663V7.70454H31.8126C33.4266 7.70454 34.9745 7.06582 36.1158 5.92891C37.2572 4.79199 37.8983 3.25001 37.8983 1.64217V0Z" fill="#6BC45E"/>
<path d="M26.2522 8.31289C26.2522 11.8907 26.2522 21.7565 26.2522 21.9692C26.2522 22.5095 26.3077 22.5648 26.8544 22.5648H29.6389C30.0873 22.5648 30.1642 22.4839 30.1642 22.0415C30.1642 21.0162 30.1642 7.70452 30.1642 7.70452H26.8586C26.6974 7.70565 26.5432 7.77023 26.4296 7.8842C26.316 7.99817 26.2522 8.15227 26.2522 8.31289Z" fill="white"/>
<path d="M96.2364 8.40224V8.13421C96.2364 7.68326 96.1553 7.61094 95.7111 7.61094H82.7709C82.7709 8.03637 82.7709 8.07466 82.7709 8.11721C82.7703 8.51646 82.8488 8.91191 83.0018 9.28093C83.1547 9.64996 83.3793 9.98533 83.6625 10.2678C83.9457 10.5504 84.282 10.7745 84.6523 10.9274C85.0225 11.0803 85.4194 11.159 85.8202 11.159H91.3721C90.1763 12.3758 86.2472 15.341 84.4066 17.2724C83.1253 18.5998 82.4249 20.0165 82.4292 21.8586V22.1436C82.4292 22.5946 82.5061 22.6669 82.9545 22.6669H96.2492V22.1564C96.2504 21.3515 95.9308 20.5791 95.3607 20.0087C94.7905 19.4384 94.0165 19.1168 93.2085 19.1146H87.6566L94.2634 13.3542C95.5387 12.0196 96.2458 10.2449 96.2364 8.40224Z" fill="white"/>
<path d="M13.2777 2.26326C12.2527 2.26326 0.811437 2.26326 0.597901 2.26326C0.0512492 2.26326 0 2.31857 0 2.86312C0 3.79056 0 21.7607 0 21.9734C0 22.5137 0.0555185 22.569 0.606441 22.569H3.39095C3.81802 22.569 3.91625 22.4882 3.91625 22.0457C3.91625 21.6033 3.91625 15.5622 3.91625 15.5622H9.30162C9.70823 15.5616 10.1107 15.4813 10.4862 15.3258C10.8616 15.1703 11.2026 14.9426 11.4898 14.6558C11.7769 14.369 12.0045 14.0287 12.1596 13.6542C12.3146 13.2798 12.3942 12.8786 12.3936 12.4736C12.3936 12.3672 12.3936 12.2694 12.3936 12.1885C12.3936 11.7631 12.3167 11.6653 11.8683 11.6653H3.92052V6.1602H10.6811C11.0923 6.1602 11.4995 6.07937 11.8794 5.92234C12.2592 5.76531 12.6042 5.53515 12.8946 5.24508C13.185 4.955 13.4151 4.6107 13.5717 4.23189C13.7283 3.85308 13.8083 3.44722 13.8072 3.03755C13.8072 2.93545 13.8072 2.85035 13.8072 2.78653C13.803 2.33983 13.7261 2.26752 13.2777 2.26326Z" fill="white"/>
<path d="M104.556 7.24934C101.139 7.24934 98.9057 8.82343 97.7526 10.8825C96.7345 12.7409 96.4308 14.9051 96.8985 16.9704C97.0745 18.0054 97.4803 18.9882 98.0861 19.8471C98.692 20.706 99.4826 21.4194 100.4 21.9352C101.619 22.6354 103.004 22.9954 104.411 22.9775H104.697C106.103 22.995 107.488 22.635 108.707 21.9352C109.624 21.4186 110.414 20.7051 111.02 19.8463C111.626 18.9875 112.032 18.0051 112.209 16.9704C112.677 14.9051 112.373 12.7409 111.355 10.8825C110.21 8.82343 107.96 7.24934 104.556 7.24934ZM108.323 16.0812C108.19 16.9597 107.743 17.7608 107.064 18.337C106.385 18.9131 105.52 19.2256 104.628 19.2167H104.488C103.596 19.2256 102.731 18.9131 102.052 18.337C101.373 17.7608 100.926 16.9597 100.793 16.0812C100.564 15.006 100.714 13.8846 101.22 12.9075C101.566 12.3302 102.056 11.852 102.642 11.52C103.229 11.188 103.892 11.0134 104.567 11.0134C105.241 11.0134 105.904 11.188 106.491 11.52C107.077 11.852 107.567 12.3302 107.913 12.9075C108.413 13.8866 108.558 15.0079 108.323 16.0812Z" fill="white"/>
<path d="M24.0955 8.30863C23.4824 7.96653 22.8017 7.76182 22.101 7.70877C21.7225 7.70847 21.3443 7.73405 20.9693 7.78534C19.7202 7.97419 18.556 8.52962 17.6253 9.3807C17.3702 8.86336 16.9752 8.4272 16.4848 8.12131C15.9944 7.81541 15.428 7.65192 14.8494 7.64922H14.5419C14.3454 7.64922 14.2216 7.71302 14.1703 7.85341C14.1722 7.86468 14.1722 7.87618 14.1703 7.88746C14.1673 7.93136 14.1673 7.97543 14.1703 8.01934V20.3568V22.0287C14.1703 22.5733 14.2258 22.6243 14.7725 22.6243H17.4929C17.5539 22.6243 17.6142 22.6123 17.6704 22.589C17.7267 22.5656 17.7777 22.5314 17.8206 22.4883C17.8635 22.4451 17.8974 22.394 17.9203 22.3378C17.9432 22.2815 17.9547 22.2213 17.9542 22.1606C17.9542 19.7229 17.9542 16.579 17.9542 14.839C17.952 14.3794 18.0182 13.9221 18.1506 13.4819C18.2805 13.0135 18.5167 12.5811 18.8411 12.2182C19.1654 11.8552 19.5692 11.5714 20.0212 11.3887C20.9365 11.0931 21.9252 11.1141 22.8271 11.4483C23.0646 11.534 23.2946 11.6393 23.5146 11.7631C24.0271 12.0482 24.5268 11.8184 24.5268 11.2526V9.15098C24.5466 8.98382 24.5162 8.81456 24.4394 8.66462C24.3626 8.51468 24.2429 8.39079 24.0955 8.30863Z" fill="white"/>
<path d="M80.5373 7.92575V2.63341C80.5373 2.34411 80.375 2.2335 80.0589 2.25903C79.1416 2.3505 78.2174 2.3505 77.3001 2.25903C76.8943 2.20798 76.7662 2.36113 76.7619 2.66319C76.7619 2.78656 76.7619 6.6835 76.7363 9.24033C76.2172 8.6233 75.5692 8.1266 74.8375 7.78491C74.1057 7.44323 73.3079 7.2648 72.4998 7.26208C67.5884 7.26208 65.0687 10.9038 65.0687 15.1793C65.0687 20.4589 68.9764 22.9689 72.1496 22.9689C73.0792 22.9995 74.0049 22.8341 74.8659 22.4837C75.727 22.1332 76.5041 21.6056 77.1463 20.9354C77.4286 21.4745 77.8604 21.9215 78.3904 22.2232C78.9204 22.5249 79.5262 22.6685 80.1358 22.6371C80.4006 22.6371 80.533 22.5222 80.5373 22.2585V7.92575ZM76.3562 17.4511C75.8869 18.2332 75.158 18.8275 74.2956 19.1312C73.4332 19.435 72.4913 19.4291 71.6328 19.1145C71.069 18.9179 70.5597 18.5914 70.1466 18.1616C69.6069 17.5989 69.2299 16.9013 69.0555 16.1427C68.8811 15.3841 68.9158 14.5926 69.1558 13.852C69.3113 13.2331 69.6196 12.6628 70.0526 12.1928C70.6017 11.6242 71.3026 11.2242 72.0727 11.0399C72.9948 10.7739 73.9835 10.8613 74.8442 11.2849C75.7048 11.7085 76.3753 12.4376 76.7235 13.3287C76.9392 13.9115 77.0463 14.5285 77.0395 15.1496C77.0201 15.9634 76.7843 16.7576 76.3562 17.4511Z" fill="white"/>
<path d="M56.7324 7.24508C55.8049 7.25001 54.8879 7.44089 54.0361 7.80634C53.1842 8.17179 52.415 8.70433 51.7741 9.37223C51.5008 8.80571 51.0645 8.33296 50.5208 8.01404C49.9771 7.69512 49.3504 7.54445 48.7205 7.58117C48.622 7.58337 48.5281 7.62365 48.4588 7.6935C48.3894 7.76336 48.3501 7.85733 48.349 7.95555V8.06616C48.349 8.13422 48.349 8.2108 48.349 8.30439V22.3819C48.3496 22.426 48.3588 22.4696 48.3763 22.5102C48.3938 22.5507 48.4191 22.5875 48.4508 22.6183C48.4826 22.6491 48.5201 22.6734 48.5612 22.6898C48.6024 22.7061 48.6463 22.7143 48.6907 22.7137H51.7827C51.8268 22.7143 51.8705 22.7061 51.9114 22.6897C51.9523 22.6733 51.9896 22.6489 52.021 22.618C52.0523 22.5872 52.0773 22.5504 52.0943 22.5098C52.1113 22.4693 52.12 22.4258 52.12 22.3819V15.4218C52.12 15.3921 52.12 15.3665 52.12 15.3325C52.12 11.7674 54.4604 10.8995 55.7929 10.8995C57.9752 10.8995 59.2094 12.0865 59.2094 15.7111V22.3819C59.2105 22.4703 59.2466 22.5547 59.3097 22.6168C59.3729 22.6789 59.4581 22.7137 59.5468 22.7137H62.6644C62.7085 22.7143 62.7523 22.7061 62.7932 22.6897C62.8341 22.6733 62.8714 22.6489 62.9028 22.618C62.9341 22.5872 62.9591 22.5504 62.9761 22.5098C62.9931 22.4693 63.0018 22.4258 63.0018 22.3819V14.3838C63.0445 9.08293 60.4308 7.24508 56.7324 7.24508Z" fill="white"/>
<path d="M122.305 7.24508C121.377 7.24953 120.46 7.44018 119.608 7.80566C118.756 8.17114 117.987 8.70394 117.346 9.37223C117.072 8.80573 116.635 8.33314 116.091 8.0143C115.546 7.69546 114.919 7.54472 114.289 7.58117C114.19 7.58337 114.096 7.62365 114.027 7.6935C113.958 7.76336 113.918 7.85733 113.917 7.95555V22.3819C113.917 22.4258 113.926 22.4693 113.943 22.5098C113.96 22.5504 113.985 22.5872 114.016 22.618C114.048 22.6489 114.085 22.6733 114.126 22.6897C114.167 22.7061 114.21 22.7143 114.255 22.7137H117.372C117.461 22.7137 117.546 22.6789 117.609 22.6168C117.672 22.5547 117.708 22.4703 117.71 22.3819V15.4218C117.712 15.3921 117.712 15.3622 117.71 15.3325C117.71 11.7674 120.05 10.8995 121.382 10.8995C123.569 10.8995 124.799 12.0865 124.799 15.7111V22.3819C124.799 22.4258 124.808 22.4693 124.825 22.5098C124.842 22.5504 124.867 22.5872 124.898 22.618C124.929 22.6489 124.967 22.6733 125.007 22.6897C125.048 22.7061 125.092 22.7143 125.136 22.7137H128.254C128.343 22.7137 128.428 22.6789 128.491 22.6168C128.554 22.5547 128.59 22.4703 128.591 22.3819V14.3838C128.613 9.08293 126.003 7.24508 122.305 7.24508Z" fill="white"/>
<path d="M46.1281 12.8692C45.4704 9.35519 43.3094 7.27058 39.3718 7.27058C38.1147 7.3119 36.8886 7.67042 35.8085 8.31256C34.7284 8.9547 33.8297 9.85945 33.1964 10.942C32.5181 12.2318 32.1691 13.668 32.1799 15.124C32.1799 19.6931 35.4214 22.9774 39.6195 22.9774C40.8302 23.0001 42.0291 22.7375 43.1185 22.2111C44.208 21.6848 45.1572 20.9095 45.8889 19.9484C45.9199 19.9052 45.942 19.8564 45.9538 19.8047C45.9656 19.7529 45.967 19.6994 45.9579 19.6471C45.9487 19.5948 45.9293 19.5449 45.9006 19.5002C45.8719 19.4555 45.8345 19.417 45.7907 19.3868L45.5302 19.2039C45.0343 18.8523 44.4446 18.6556 43.8362 18.6389C43.2278 18.6223 42.6281 18.7864 42.1136 19.1103C41.4275 19.5367 40.6331 19.7582 39.8245 19.7484C36.5361 19.7484 35.9809 16.4556 35.9809 16.4556C35.9809 16.4556 40.5164 16.4258 43.4461 16.4258C45.4234 16.4258 46.5552 15.1453 46.1281 12.8692ZM42.451 13.4095H35.9809C35.9809 12.2481 37.7575 10.6059 39.8245 10.6059C40.5122 10.6134 41.1798 10.8383 41.7309 11.2481C42.282 11.6579 42.6882 12.2316 42.8909 12.8863C42.9063 12.9508 42.9064 13.018 42.8911 13.0825C42.8758 13.147 42.8456 13.2071 42.8029 13.2579C42.7601 13.3088 42.7061 13.349 42.645 13.3753C42.5839 13.4016 42.5175 13.4133 42.451 13.4095Z" fill="white"/>
<path d="M143.321 19.2252C142.825 18.8725 142.236 18.6751 141.627 18.6585C141.018 18.6418 140.418 18.8065 139.904 19.1316C139.217 19.5585 138.421 19.78 137.611 19.7697C134.323 19.7697 133.767 16.4769 133.767 16.4769C133.767 16.4769 138.303 16.4471 141.233 16.4471C143.206 16.4471 144.337 15.1708 143.91 12.8905C143.253 9.37646 141.087 7.29187 137.15 7.29187C135.893 7.33318 134.667 7.6917 133.586 8.33384C132.506 8.97598 131.608 9.88072 130.974 10.9633C130.3 12.2544 129.953 13.69 129.962 15.1453C129.962 19.7144 133.204 22.9987 137.402 22.9987C138.612 23.0207 139.81 22.7578 140.898 22.2315C141.987 21.7051 142.936 20.9302 143.667 19.9697C143.699 19.927 143.721 19.8784 143.734 19.8267C143.746 19.7751 143.748 19.7214 143.74 19.669C143.731 19.6166 143.711 19.5665 143.683 19.5217C143.654 19.4768 143.617 19.4382 143.573 19.4081L143.321 19.2252ZM137.594 10.6272C138.282 10.6347 138.949 10.8595 139.5 11.2694C140.051 11.6792 140.458 12.2528 140.66 12.9075C140.675 12.9709 140.676 13.037 140.661 13.1005C140.646 13.164 140.617 13.2234 140.576 13.2739C140.535 13.3245 140.482 13.3649 140.423 13.3921C140.364 13.4193 140.299 13.4326 140.233 13.4308H133.78C133.78 12.2481 135.544 10.606 137.594 10.606V10.6272Z" fill="white"/>
</svg>
